<?xml version="1.0" encoding="utf-8"?>
<!-- Generator: Adobe Illustrator 26.2.1, SVG Export Plug-In . SVG Version: 6.00 Build 0)  -->
<svg version="1.1" id="Layer_1" xmlns="http://www.w3.org/2000/svg" xmlns:xlink="http://www.w3.org/1999/xlink" x="0px" y="0px"
	 viewBox="0 0 200 200" style="enable-background:new 0 0 200 200;" xml:space="preserve">
<style type="text/css">
	.st0{fill:#253441;}
	.st1{fill:#FFFFFF;}
</style>
<path class="st0" d="M100,192.64L100,192.64c-51.17,0-92.64-41.48-92.64-92.64v0C7.36,48.83,48.83,7.36,100,7.36h0
	c51.17,0,92.64,41.48,92.64,92.64v0C192.64,151.17,151.17,192.64,100,192.64z"/>
<g>
	<path class="st1" d="M61.4,145.71c-9.12,0-16.94-1.85-23.46-5.54c-6.52-3.69-11.49-8.9-14.92-15.64
		c-3.43-6.73-5.15-14.66-5.15-23.78c0-9.12,2-17.05,5.99-23.78c4-6.73,9.77-11.94,17.33-15.64c7.56-3.69,16.64-5.54,27.23-5.54
		c9.9,0,18.38,1.39,25.41,4.17c7.04,2.78,12.42,6.76,16.16,11.92c3.73,5.17,5.6,11.36,5.6,18.57v0.91H88.25v-0.91
		c0-4.08-1.48-6.97-4.43-8.67c-2.95-1.69-8.3-2.54-16.03-2.54c-6.25,0-11.1,0.59-14.53,1.76c-3.43,1.17-5.84,3.3-7.23,6.39
		c-1.39,3.08-2.08,7.54-2.08,13.36c0,5.73,0.65,10.16,1.95,13.29c1.3,3.13,3.58,5.28,6.84,6.45s7.84,1.76,13.75,1.76
		c7.04,0,12.34-0.24,15.9-0.72c3.56-0.48,5.93-1.52,7.1-3.13c1.17-1.61,1.76-4.11,1.76-7.49v-4.82l24.5-0.52v1.82L94.5,125.77h-2.87
		c-0.78,3.39-2.24,6.6-4.36,9.64c-2.13,3.04-5.26,5.52-9.38,7.43C73.76,144.75,68.27,145.71,61.4,145.71z M115.74,114.7h-51.6V96.71
		h51.6V114.7z M115.74,144.41h-22.8v-24.89l-1.69-2.74v-18.9h24.5V144.41z"/>
</g>
<g>
	<path class="st1" d="M130.35,142.67v-4.43l4.56-2.48c3.78-2.21,4.82-3.78,4.82-8.73V71.25c0-6.52-1.04-8.21-4.69-9.77l-4.17-1.82
		v-4.43l25.54-10.3l4.04,2.61v79.5c0,4.95,1.04,6.52,4.82,8.73l4.56,2.48v4.43H130.35z"/>
</g>
</svg>
